<svg width="1757" height="1306" viewBox="0 0 1757 1306" fill="none" xmlns="http://www.w3.org/2000/svg">
    <g opacity="0.5" filter="url(#filter0_f_1197_1755)">
        <path fill-rule="evenodd" clip-rule="evenodd" d="M653.393 208C407.409 208 208 407.409 208 653.393C208 899.377 407.409 1098.79 653.393 1098.79C830.304 1098.79 983.124 995.644 1055 846.212C1103.87 875.309 1160.98 892.021 1221.99 892.021C1402.54 892.021 1548.91 745.656 1548.91 565.105C1548.91 384.554 1402.54 238.188 1221.99 238.188C1124.77 238.188 1037.47 280.624 977.585 347.982C896.365 261.8 781.162 208 653.393 208Z" fill="url(#paint0_linear_1197_1755)"/>
    </g>
    <defs>
        <filter id="filter0_f_1197_1755" x="0.789993" y="0.789993" width="1755.33" height="1305.21" filterUnits="userSpaceOnUse" color-interpolation-filters="sRGB">
            <feFlood flood-opacity="0" result="BackgroundImageFix"/>
            <feBlend mode="normal" in="SourceGraphic" in2="BackgroundImageFix" result="shape"/>
            <feGaussianBlur stdDeviation="103.605" result="effect1_foregroundBlur_1197_1755"/>
        </filter>
        <linearGradient id="paint0_linear_1197_1755" x1="200.657" y1="653.393" x2="1540.09" y2="653.393" gradientUnits="userSpaceOnUse">
            <stop offset="0.234375" stop-color="#8C97FF"/>
            <stop offset="0.9999" stop-color="#31D0AA"/>
        </linearGradient>
    </defs>
</svg>
