<svg xmlns="http://www.w3.org/2000/svg">
	<defs>

		<symbol id="icon-arrow-right" viewBox="0 0 14 14">
			<path d="M7 13L12.9929 7.007C12.9968 7.0031 12.9968 6.99673 12.9929 6.99282L7 1" fill="none" stroke-width="2" />
			<path d="M0 7H13" fill="none" stroke-width="2"/>
		</symbol>

		<symbol id="icon-star" viewBox="0 0 17 17">
			<path d="M8.48347 13.5929L4.63322 16.5326C4.44244 16.6887 4.23432 16.7622 4.00886 16.7532C3.78339 16.7449 3.58394 16.68 3.41051 16.5586C3.23707 16.4372 3.10283 16.2724 3.00779 16.0643C2.91206 15.8562 2.90755 15.6307 2.99426 15.3879L4.47713 10.5751L0.704926 7.89554C0.496805 7.75679 0.366728 7.57469 0.314698 7.34922C0.262668 7.12376 0.27134 6.91563 0.340713 6.72486C0.410087 6.53408 0.531491 6.36481 0.704926 6.21704C0.878361 6.06997 1.08648 5.99643 1.32929 5.99643H5.98601L7.49489 1.00151C7.58161 0.758703 7.7162 0.572087 7.89865 0.441664C8.08041 0.311935 8.27535 0.24707 8.48347 0.24707C8.69159 0.24707 8.88653 0.311935 9.06829 0.441664C9.25075 0.572087 9.38533 0.758703 9.47205 1.00151L10.9809 5.99643H15.6377C15.8805 5.99643 16.0886 6.06997 16.262 6.21704C16.4355 6.36481 16.5569 6.53408 16.6262 6.72486C16.6956 6.91563 16.7043 7.12376 16.6522 7.34922C16.6002 7.57469 16.4701 7.75679 16.262 7.89554L12.4898 10.5751L13.9727 15.3879C14.0594 15.6307 14.0552 15.8562 13.9602 16.0643C13.8645 16.2724 13.7299 16.4372 13.5564 16.5586C13.383 16.68 13.1836 16.7449 12.9581 16.7532C12.7326 16.7622 12.5245 16.6887 12.3337 16.5326L8.48347 13.5929Z" stroke="none"/>
		</symbol>

		<symbol id="icon-social-youtube" viewBox="0 0 31 30">
			<path d="M29.4194 7.73164C29.0744 6.43289 28.0581 5.40914 26.7669 5.06164C24.4281 4.43164 15.0469 4.43164 15.0469 4.43164C15.0469 4.43164 5.66562 4.43164 3.32562 5.06164C2.03562 5.40914 1.01937 6.43164 0.674375 7.73164C0.046875 10.0866 0.046875 14.9991 0.046875 14.9991C0.046875 14.9991 0.046875 19.9116 0.674375 22.2666C1.01937 23.5654 2.03563 24.5891 3.32688 24.9366C5.66563 25.5666 15.0469 25.5666 15.0469 25.5666C15.0469 25.5666 24.4281 25.5666 26.7681 24.9366C28.0581 24.5891 29.0744 23.5666 29.4206 22.2666C30.0469 19.9116 30.0469 14.9991 30.0469 14.9991C30.0469 14.9991 30.0469 10.0866 29.4194 7.73164ZM11.9794 19.4604V10.5379L19.8194 14.9991L11.9794 19.4604Z" stroke="none"/>
		</symbol>

		<symbol id="icon-social-linkedin" viewBox="0 0 31 30">
			<path d="M28.7991 26.9778H29.0828L28.5391 26.1553C28.8716 26.1553 29.0478 25.9441 29.0503 25.6853C29.0503 25.6753 29.0503 25.6641 29.0491 25.6541C29.0491 25.3016 28.8366 25.1328 28.4003 25.1328H27.6953V26.9778H27.9603V26.1741H28.2866L28.7991 26.9778ZM28.2678 25.9653H27.9603V25.3416H28.3503C28.5516 25.3416 28.7816 25.3741 28.7816 25.6378C28.7816 25.9403 28.5503 25.9653 28.2678 25.9653Z" stroke="none"/>
			<path d="M21.6606 23.8405H17.9019V17.9542C17.9019 16.5505 17.8769 14.7442 15.9469 14.7442C13.9894 14.7442 13.6894 16.273 13.6894 17.853V23.8405H9.93188V11.7355H13.5406V13.3892H13.5906C14.3269 12.1317 15.6944 11.3805 17.1506 11.4342C20.9606 11.4342 21.6619 13.9405 21.6619 17.1992L21.6606 23.8405ZM5.69062 10.0805C4.48562 10.0805 3.50938 9.10423 3.50938 7.89923C3.50938 6.69423 4.48562 5.71798 5.69062 5.71798C6.89562 5.71798 7.87188 6.69423 7.87188 7.89923C7.87188 9.10423 6.89562 10.0805 5.69062 10.0805ZM7.56938 23.8405H3.80687V11.7355H7.56938V23.8405ZM23.5344 2.22798H1.91812C0.896875 2.21673 0.059375 3.03548 0.046875 4.05673V25.7617C0.059375 26.7842 0.896875 27.603 1.91812 27.5917H23.5344C24.5581 27.6042 25.3994 26.7855 25.4131 25.7617V4.05548C25.3981 3.03173 24.5569 2.21298 23.5344 2.22673" stroke="none"/>
			<path d="M28.3024 24.3125C27.3474 24.3213 26.5799 25.1037 26.5899 26.0587C26.5987 27.0137 27.3812 27.7813 28.3362 27.7713C29.2912 27.7625 30.0587 26.98 30.0487 26.025C30.0399 25.0825 29.2774 24.3213 28.3362 24.3125H28.3024ZM28.3424 27.5725C27.5049 27.5863 26.7749 26.92 26.7612 26.0825C26.7474 25.245 27.4149 24.555 28.2524 24.5413C29.0899 24.5275 29.7799 25.195 29.7937 26.0325C29.7937 26.0412 29.7937 26.0488 29.7937 26.0575C29.8112 26.8763 29.1612 27.555 28.3424 27.5725H28.3037H28.3424Z" stroke="none"/>
		</symbol>

		<symbol id="icon-social-facebook" viewBox="0 0 31 30">
			<path d="M30.0469 15.0898C30.0469 22.5761 24.5544 28.7823 17.3844 29.9086V19.4548H20.8706L21.5344 15.1298H17.3844V12.3236C17.3844 11.1398 17.9644 9.98734 19.8219 9.98734H21.7081V6.30484C21.7081 6.30484 19.9956 6.01234 18.3594 6.01234C14.9419 6.01234 12.7094 8.08359 12.7094 11.8323V15.1286H8.91063V19.4536H12.7094V29.9073C5.54063 28.7798 0.046875 22.5748 0.046875 15.0898C0.046875 6.80609 6.76313 0.0898438 15.0469 0.0898438C23.3306 0.0898438 30.0469 6.80484 30.0469 15.0898Z" stroke="none"/>
		</symbol>

		<symbol id="icon-social-instagram" viewBox="0 0 31 30">
			<path d="M23.7674 5.55078C23.3658 5.55078 23.0391 5.87756 23.0391 6.2791C23.0391 6.68064 23.3658 7.00742 23.7674 7.00742C24.169 7.00742 24.4957 6.6807 24.4957 6.2791C24.4957 5.8775 24.169 5.55078 23.7674 5.55078Z" stroke="none"/>
			<path d="M15.0466 8.54297C11.4864 8.54297 8.58984 11.4395 8.58984 14.9998C8.58984 18.56 11.4864 21.4566 15.0466 21.4566C18.607 21.4566 21.5035 18.5601 21.5035 14.9998C21.5035 11.4396 18.607 8.54297 15.0466 8.54297Z" stroke="none"/>
			<path d="M21.8228 0H8.27092C3.73617 0 0.046875 3.6893 0.046875 8.2241V21.776C0.046875 26.3108 3.73617 30 8.27092 30H21.8228C26.3576 30 30.0469 26.3107 30.0469 21.776V8.2241C30.0469 3.6893 26.3576 0 21.8228 0ZM15.0469 23.2284C10.5097 23.2284 6.8185 19.5372 6.8185 15C6.8185 10.4628 10.5097 6.77168 15.0469 6.77168C19.584 6.77168 23.2753 10.4629 23.2753 15C23.2753 19.5371 19.584 23.2284 15.0469 23.2284ZM23.7674 8.77945C22.389 8.77945 21.2675 7.65797 21.2675 6.27949C21.2675 4.90102 22.389 3.77947 23.7674 3.77947C25.1459 3.77947 26.2674 4.90096 26.2674 6.27943C26.2674 7.65791 25.1459 8.77945 23.7674 8.77945Z" stroke="none"/>
		</symbol>

		<symbol id="icon-envelope" viewBox="0 0 30 31">
			<path d="M3.68246 6.26383L11.7871 14.372C13.5548 16.1363 16.4443 16.1378 18.2134 14.372L26.3181 6.26383C26.3997 6.18221 26.3878 6.04779 26.2931 5.98176C25.4665 5.40525 24.4607 5.06348 23.3773 5.06348H6.62328C5.53982 5.06348 4.53406 5.40531 3.70742 5.98176C3.61273 6.04779 3.60084 6.18221 3.68246 6.26383ZM1.5166 10.1701C1.5166 9.31814 1.72783 8.51318 2.0999 7.80566C2.15809 7.69498 2.30557 7.6726 2.39398 7.76102L10.3961 15.7631C12.9301 18.3008 17.069 18.3023 19.6045 15.7631L27.6066 7.76102C27.6951 7.6726 27.8425 7.69498 27.9007 7.80566C28.2727 8.51318 28.484 9.3182 28.484 10.1701V20.8305C28.484 23.6484 26.1918 25.9371 23.3773 25.9371H6.62328C3.80891 25.9371 1.5166 23.6484 1.5166 20.8305V10.1701Z" stroke="none"/>
		</symbol>

		<symbol id="icon-map-marker" viewBox="0 0 43 53">
			<path d="M42.4145 21.2071C42.4145 29.5472 31.6541 43.267 25.4628 50.4709C23.2189 53.0817 19.1953 53.0817 16.9517 50.4709C10.7604 43.267 0 29.547 0 21.2071C0 9.49897 9.49898 0 21.2071 0C32.9153 0 42.4145 9.49897 42.4145 21.2071Z" fill="url(#paint0_linear_82_2740)"/>
			<path d="M30.0764 20.1911C31.0074 26.2608 25.851 31.4174 19.7813 30.4867C15.9991 29.9066 12.9077 26.8152 12.3279 23.033C11.3974 16.9638 16.5528 11.8079 22.6222 12.7379C26.4047 13.3175 29.4964 16.4087 30.0764 20.1911Z" fill="white"/>
			<defs>
				<linearGradient id="paint0_linear_82_2740" x1="-0.232281" y1="26.2145" x2="42.1358" y2="26.2145" gradientUnits="userSpaceOnUse">
					<stop offset="0.234375" stop-color="#8C97FF"/>
					<stop offset="0.9999" stop-color="#31D0AA"/>
				</linearGradient>
			</defs>
		</symbol>

		<symbol id="icon-share-linkedin" viewBox="0 0 50 50">
			<path d="M25 0C11.195 0 0 11.195 0 25C0 38.805 11.195 50 25 50C38.805 50 50 38.805 50 25C50 11.195 38.805 0 25 0ZM17.7353 37.793H11.6467V19.4752H17.7353V37.793ZM14.6912 16.9739H14.6515C12.6083 16.9739 11.2869 15.5674 11.2869 13.8096C11.2869 12.0121 12.6488 10.6445 14.7316 10.6445C16.8144 10.6445 18.0962 12.0121 18.1358 13.8096C18.1358 15.5674 16.8144 16.9739 14.6912 16.9739ZM39.6896 37.793H33.6018V27.9934C33.6018 25.5306 32.7202 23.851 30.5172 23.851C28.8353 23.851 27.8336 24.984 27.3933 26.0777C27.2324 26.469 27.1931 27.0161 27.1931 27.5635V37.793H21.1048C21.1048 37.793 21.1845 21.1937 21.1048 19.4752H27.1931V22.0688C28.0022 20.8206 29.4498 19.0453 32.6801 19.0453C36.6859 19.0453 39.6896 21.6633 39.6896 27.2896V37.793Z" stroke="none"/>
		</symbol>

		<symbol id="icon-share-facebook" viewBox="0 0 50 50">
			<path d="M25 0C11.2151 0 0 11.2151 0 25C0 38.7839 11.2151 50 25 50C38.7839 50 50 38.7839 50 25C50 11.2151 38.7859 0 25 0ZM31.2173 25.8801H27.15V40.377H21.123C21.123 40.377 21.123 32.4559 21.123 25.8801H18.2581V20.7565H21.123V17.4424C21.123 15.0689 22.2509 11.3601 27.2053 11.3601L31.6714 11.3772V16.3508C31.6714 16.3508 28.9575 16.3508 28.4299 16.3508C27.9022 16.3508 27.152 16.6146 27.152 17.7465V20.7575H31.7439L31.2173 25.8801Z" stroke="none"/>
		</symbol>

		<symbol id="icon-share-twitter" viewBox="0 0 50 50">
			<path d="M25 0C11.1934 0 0 11.1934 0 25C0 38.8066 11.1934 50 25 50C38.8066 50 50 38.8066 50 25C50 11.1934 38.8066 0 25 0Z" stroke="none"/>
			<path d="M27.7351 22.7373L38.4373 10.2969H35.9012L26.6085 21.0987L19.1864 10.2969H10.626L21.8496 26.6312L10.626 39.6769H13.1622L22.9756 28.2698L30.8138 39.6769H39.3743L27.7345 22.7373H27.7351ZM14.076 12.2061H17.9715L35.9024 37.8545H32.0069L14.076 12.2061Z" fill="white"/>
		</symbol>

		<symbol id="icon-more" viewBox="0 0 18 18">
			<path d="M8.99994 0C4.0294 0 0 4.0294 0 8.99994C0 13.9705 4.0294 18.0001 8.99994 18.0001C13.9705 18.0001 18.0001 13.9705 18.0001 8.99994C17.9944 4.03171 13.9683 0.00560301 8.99994 0ZM8.99994 17.0999C4.52642 17.0999 0.899945 13.4735 0.899945 8.99994C0.899945 4.52642 4.52642 0.899945 8.99994 0.899945C13.4735 0.899945 17.0999 4.52642 17.0999 8.99994C17.0948 13.4713 13.4713 17.0948 8.99994 17.0999Z" stroke="none"/>
			<path d="M7.94959 5.51165C7.76238 5.34801 7.47811 5.36713 7.31447 5.55417C7.15099 5.74138 7.17011 6.02565 7.35715 6.18929L10.57 9.00036L7.35699 11.8116C7.16978 11.9752 7.15083 12.2595 7.3143 12.4466C7.47795 12.6338 7.76222 12.6529 7.94942 12.4892L11.5494 9.33918C11.6471 9.25382 11.7031 9.13022 11.7031 9.00036C11.7031 8.8705 11.6471 8.74707 11.5494 8.66154L7.94959 5.51165Z" stroke="none"/>
		</symbol>

		<symbol id="icon-load-more" viewBox="0 0 51 50">
			<path d="M50.5 24.9998C50.5 11.1928 39.3072 -4.89252e-07 25.5002 -1.09278e-06C11.6931 -1.6963e-06 0.499851 11.1928 0.49985 24.9998C0.49985 38.8069 11.6931 50.0001 25.5002 50.0001C39.3008 49.9846 50.4844 38.801 50.5 24.9998ZM3.00016 24.9998C3.00016 12.5734 13.0737 2.49985 25.5002 2.49985C37.9266 2.49985 48.0002 12.5734 48.0002 24.9998C48.0002 37.4263 37.9266 47.4998 25.5002 47.4998C13.0797 47.4857 3.01435 37.4203 3.00016 24.9998Z" stroke="none"/>
			<path d="M35.1909 22.0725C35.6455 21.5525 35.5924 20.7629 35.0728 20.3083C34.5528 19.8542 33.7632 19.9073 33.3086 20.4269L25.5001 29.3514L17.6911 20.4264C17.2365 19.9064 16.4469 19.8538 15.9273 20.3079C15.4073 20.7624 15.3542 21.5521 15.8088 22.0721L24.5589 32.0719C24.796 32.3434 25.1394 32.499 25.5001 32.499C25.8608 32.499 26.2037 32.3434 26.4412 32.0719L35.1909 22.0725Z" stroke="none"/>
		</symbol>

		<symbol id="icon-search" viewBox="0 0 24 24">
			<path d="M11 19C15.4183 19 19 15.4183 19 11C19 6.58172 15.4183 3 11 3C6.58172 3 3 6.58172 3 11C3 15.4183 6.58172 19 11 19Z" fill="none" stroke-width="2" stroke-linecap="round" stroke-linejoin="round"/>
			<path d="M20.9984 21.0004L16.6484 16.6504" fill="none" stroke-width="2" stroke-linecap="round" stroke-linejoin="round"/>
		</symbol>

		<symbol id="icon-quote" viewBox="0 0 43 35">
			<path d="M42.28 34.3H26.04C24.4533 29.1667 23.66 23.8467 23.66 18.34C23.66 12.74 25.1067 8.30666 28 5.03999C30.9867 1.68 35.3733 0 41.16 0V7.84C36.4933 7.84 34.16 10.6867 34.16 16.38V19.04H42.28V34.3ZM18.62 34.3H2.38C0.793333 29.1667 0 23.8467 0 18.34C0 12.74 1.44667 8.30666 4.34 5.03999C7.32667 1.68 11.7133 0 17.5 0V7.84C12.8333 7.84 10.5 10.6867 10.5 16.38V19.04H18.62V34.3Z" stroke="none"/>
		</symbol>

		<symbol id="icon-faq-closed" viewBox="0 0 36 36">
			<path d="M18 12V24M12 18H24M33 18C33 26.2843 26.2843 33 18 33C9.71573 33 3 26.2843 3 18C3 9.71573 9.71573 3 18 3C26.2843 3 33 9.71573 33 18Z" fill="none" stroke-width="3" stroke-linecap="round" stroke-linejoin="round"/>
		</symbol>

		<symbol id="icon-faq-open" viewBox="0 0 36 36">
			<path d="M12 18H24M33 18C33 26.2843 26.2843 33 18 33C9.71573 33 3 26.2843 3 18C3 9.71573 9.71573 3 18 3C26.2843 3 33 9.71573 33 18Z" fill="none" stroke-width="3" stroke-linecap="round" stroke-linejoin="round"/>
		</symbol>
	</defs>
</svg>